<svg width="168" height="42" viewBox="0 0 168 42" fill="none" xmlns="http://www.w3.org/2000/svg">
<g clip-path="url(#clip0_101_5860)">
<path d="M26.0415 26.4395H28.3423V30.7364H28.3769C28.7028 29.967 29.3931 29.3054 30.8886 29.3708C31.543 29.3643 32.1844 29.5538 32.7308 29.9149C33.2773 30.276 33.704 30.7924 33.9564 31.3981C34.3547 32.2393 34.553 33.1618 34.5357 34.093C34.5184 35.0242 34.286 35.9386 33.8567 36.7644C33.1665 38.2493 32.25 38.8917 30.6394 38.8225C30.1916 38.8053 29.7543 38.6816 29.3636 38.4616C28.9729 38.2415 28.6399 37.9314 28.3922 37.5569H28.3577V38.4532H26.0568L26.0415 26.4395ZM28.7258 32.3829C28.4658 32.9281 28.3308 33.5249 28.3308 34.1293C28.3308 34.7338 28.4658 35.3305 28.7258 35.8758C28.8568 36.1744 29.0716 36.4284 29.3439 36.6067C29.6163 36.785 29.9345 36.8799 30.2597 36.8799C30.5849 36.8799 30.9031 36.785 31.1755 36.6067C31.4479 36.4284 31.6626 36.1744 31.7936 35.8758C32.0536 35.3305 32.1886 34.7338 32.1886 34.1293C32.1886 33.5249 32.0536 32.9281 31.7936 32.3829C31.6626 32.0842 31.4479 31.8303 31.1755 31.652C30.9031 31.4737 30.5849 31.3787 30.2597 31.3787C29.9345 31.3787 29.6163 31.4737 29.3439 31.652C29.0716 31.8303 28.8568 32.0842 28.7258 32.3829Z" fill="#1D1D1B"/>
<path d="M41.2772 38.4533C41.0996 38.1925 41.0133 37.8799 41.0317 37.5646C40.2264 38.334 39.5209 38.8303 38.1749 38.8303C36.3687 38.8303 35.4905 37.8108 35.5481 36.0797C35.5941 34.8295 36.0888 33.6101 38.125 33.2639C38.9064 33.2266 39.6798 33.0882 40.4259 32.8522C40.619 32.7724 40.7803 32.6305 40.8844 32.4488C40.9885 32.2671 41.0296 32.0558 41.0011 31.8482C41.0011 31.2904 40.5409 31.0404 39.4902 31.0404C38.1787 31.0404 38.0138 31.8482 37.9793 32.4906H35.8318C35.8663 29.6401 38.2976 29.3785 39.5093 29.3785C40.224 29.3606 40.936 29.4727 41.6108 29.7093C42.5005 30.071 43.206 30.7942 43.206 32.2098V37.0876C43.2102 37.2895 43.2575 37.488 43.3448 37.6699C43.4322 37.8517 43.5575 38.0126 43.7122 38.1417V38.4533H41.2772ZM37.2392 26.4126H39.0453V28.4245H37.2392V26.4126ZM41.0126 34.2525C40.3568 34.6372 39.4787 34.6141 38.8805 34.7295C38.7138 34.7455 38.5526 34.7978 38.4082 34.8828C38.2637 34.9677 38.1395 35.0833 38.0442 35.2214C37.9489 35.3595 37.8848 35.5168 37.8563 35.6823C37.8279 35.8479 37.8358 36.0176 37.8796 36.1798C38.01 36.7068 38.4203 37.0876 39.4135 36.9222C40.7748 36.7068 41.0202 35.7682 41.0202 34.7641L41.0126 34.2525ZM42.0978 26.4126V28.4245H40.2916V26.4126H42.0978Z" fill="#1D1D1B"/>
<path d="M53.1802 38.4955H50.8794V37.5569H50.8487C50.6004 37.9317 50.2668 38.242 49.8754 38.462C49.484 38.6821 49.0461 38.8056 48.5977 38.8225C46.991 38.8917 46.0706 38.2493 45.3804 36.7644C45.0038 35.9854 44.7761 35.1425 44.7093 34.2794C44.6711 33.2872 44.8668 32.3 45.2807 31.3981C45.5331 30.7924 45.9598 30.276 46.5062 29.9149C47.0527 29.5538 47.6941 29.3643 48.3485 29.3708C49.8402 29.3054 50.5304 29.9786 50.8602 30.7364H50.8909V26.4395H53.1917L53.1802 38.4955ZM47.4281 32.3675C47.1681 32.9127 47.0331 33.5095 47.0331 34.1139C47.0331 34.7184 47.1681 35.3152 47.4281 35.8604C47.5603 36.1577 47.7755 36.4102 48.0478 36.5874C48.32 36.7646 48.6375 36.8589 48.962 36.8589C49.2865 36.8589 49.6041 36.7646 49.8763 36.5874C50.1485 36.4102 50.3637 36.1577 50.4959 35.8604C50.7536 35.3145 50.8872 34.718 50.8872 34.1139C50.8872 33.5099 50.7536 32.9134 50.4959 32.3675C50.3637 32.0702 50.1485 31.8177 49.8763 31.6405C49.6041 31.4633 49.2865 31.369 48.962 31.369C48.6375 31.369 48.32 31.4633 48.0478 31.6405C47.7755 31.8177 47.5603 32.0702 47.4281 32.3675V32.3675Z" fill="#1D1D1B"/>
<path d="M56.9535 34.7065C56.8626 35.2031 56.9626 35.7158 57.2335 36.1414C57.4456 36.4467 57.7415 36.6837 58.0852 36.8237C58.4289 36.9636 58.8058 37.0006 59.17 36.93C59.8296 36.7992 60.3856 36.3876 60.5007 35.926H62.767C62.3835 37.6532 60.2706 38.8226 58.7137 38.8226C57.8995 38.8158 57.103 38.5828 56.4128 38.1494C55.6539 37.6471 55.0916 36.8969 54.8214 36.026C54.6005 35.0406 54.5719 34.0217 54.737 33.0254C55.3123 29.5363 57.7243 29.3709 58.7443 29.3709C59.4123 29.3434 60.0758 29.4915 60.6691 29.8005C61.2624 30.1096 61.7648 30.5688 62.1266 31.1328C62.9319 32.433 62.9319 33.6371 62.8935 34.7065H56.9535ZM60.4853 33.1678C60.4853 32.4907 60.2552 31.3713 58.8747 31.3059C58.6219 31.2801 58.3664 31.31 58.1263 31.3935C57.8861 31.4771 57.6671 31.6123 57.4845 31.7896C57.3019 31.9669 57.1601 32.1822 57.069 32.4202C56.978 32.6583 56.9399 32.9134 56.9574 33.1678H60.4853Z" fill="#1D1D1B"/>
<path d="M64.4272 29.5167H66.7281V31.2478H66.7588C66.9083 30.7208 67.0234 30.4092 67.8287 29.8476C68.0532 29.6563 68.3155 29.515 68.5984 29.4328C68.8813 29.3505 69.1783 29.3293 69.4699 29.3706V31.7248C68.4844 31.6094 67.008 31.4786 66.7281 33.4213V38.453H64.4272V29.5167Z" fill="#1D1D1B"/>
<path d="M70.7472 26.4395H73.048V30.7364H73.0826C73.4085 29.967 74.0988 29.3054 75.5943 29.3708C76.2487 29.3643 76.8901 29.5538 77.4365 29.9149C77.983 30.276 78.4097 30.7924 78.6621 31.3981C79.0604 32.2393 79.2587 33.1618 79.2414 34.093C79.2241 35.0242 78.9917 35.9386 78.5624 36.7644C77.876 38.2493 76.9557 38.8917 75.3451 38.8225C74.8973 38.8053 74.46 38.6816 74.0693 38.4616C73.6786 38.2415 73.3456 37.9314 73.0979 37.5569H73.0289V38.4532H70.728L70.7472 26.4395ZM73.4315 32.3829C73.1715 32.9281 73.0365 33.5249 73.0365 34.1293C73.0365 34.7338 73.1715 35.3305 73.4315 35.8758C73.5637 36.1731 73.779 36.4256 74.0512 36.6028C74.3234 36.78 74.6409 36.8743 74.9654 36.8743C75.2899 36.8743 75.6075 36.78 75.8797 36.6028C76.1519 36.4256 76.3671 36.1731 76.4993 35.8758C76.757 35.3299 76.8906 34.7334 76.8906 34.1293C76.8906 33.5253 76.757 32.9288 76.4993 32.3829C76.3671 32.0856 76.1519 31.8331 75.8797 31.6559C75.6075 31.4787 75.2899 31.3844 74.9654 31.3844C74.6409 31.3844 74.3234 31.4787 74.0512 31.6559C73.779 31.8331 73.5637 32.0856 73.4315 32.3829V32.3829Z" fill="#1D1D1B"/>
<path d="M85.9827 38.453C85.8052 38.1922 85.7189 37.8797 85.7373 37.5644C84.932 38.3337 84.2264 38.83 82.8804 38.83C81.0743 38.83 80.1961 37.8106 80.2536 36.0795C80.3035 34.8292 80.7943 33.6098 82.8306 33.2636C83.6119 33.2259 84.3852 33.0876 85.1314 32.852C85.3239 32.7715 85.4844 32.6293 85.5877 32.4477C85.6911 32.266 85.7316 32.0551 85.7028 31.8479C85.7028 31.2901 85.2465 31.0401 84.1957 31.0401C82.8804 31.0401 82.7155 31.8479 82.6849 32.4904H80.5182C80.5489 29.6398 82.9801 29.3783 84.1957 29.3783C84.9091 29.3607 85.6198 29.4727 86.2934 29.7091C87.183 30.0707 87.8886 30.7939 87.8886 32.2095V37.0874C87.8935 37.2894 87.9415 37.4881 88.0295 37.67C88.1175 37.8518 88.2434 38.0126 88.3986 38.1414V38.453H85.9827ZM85.7181 34.2522C85.0624 34.6369 84.1842 34.6138 83.586 34.7292C83.4193 34.7452 83.2582 34.7975 83.1137 34.8825C82.9693 34.9675 82.8451 35.083 82.7498 35.2211C82.6545 35.3592 82.5904 35.5165 82.5619 35.6821C82.5335 35.8476 82.5414 36.0174 82.5852 36.1795C82.7155 36.7065 83.1259 37.0874 84.1191 36.9219C85.4804 36.7065 85.7258 35.7679 85.7258 34.7639L85.7181 34.2522Z" fill="#1D1D1B"/>
<path d="M97.92 38.4533H95.6191V37.3492H95.5885C95.3833 37.7619 95.076 38.1147 94.696 38.374C94.316 38.6334 93.8759 38.7905 93.418 38.8303C92.1564 38.8303 90.0856 38.6841 89.9897 35.7528V29.517H92.2906V35.0527C92.2561 35.822 92.2561 36.8491 93.9472 36.7837C95.343 36.6337 95.5731 35.8413 95.623 35.2835V29.5132H97.9238L97.92 38.4533Z" fill="#1D1D1B"/>
<path d="M12.1601 15.2951L11.999 15.826C15.4158 16.8492 16.6851 15.0989 16.7349 15.0258L16.2863 14.7065C16.2402 14.7681 15.1704 16.1953 12.1601 15.2951Z" fill="#1D1D1B"/>
<path d="M6.91406 12.6022C7.49694 13.6985 8.41345 17.3838 8.6397 18.3263C8.02279 18.5737 7.49017 18.9944 7.1058 19.538L7.07129 19.6034V19.6573C7.07129 19.6958 7.07129 19.7342 7.07129 19.7688C7.07261 19.9037 7.10559 20.0363 7.16755 20.1559C7.22952 20.2755 7.31871 20.3789 7.42792 20.4574C8.33675 21.1537 10.7603 20.8998 11.3624 20.6575C13.0535 19.9804 12.1677 13.8985 11.9721 12.6868L11.4276 12.7753C11.8839 15.6066 12.0986 19.7689 11.1591 20.1458C10.5801 20.3767 8.41728 20.5305 7.76538 20.0189C7.72495 19.9929 7.6911 19.9578 7.66648 19.9164C7.64186 19.875 7.62714 19.8284 7.62349 19.7804C8.00336 19.3109 8.50491 18.9555 9.07302 18.7533L9.29544 18.6648L9.24175 18.434C9.19574 18.2378 8.11434 13.6754 7.41258 12.356L6.91406 12.6022Z" fill="#1D1D1B"/>
<path d="M5.17685 7.08613C4.82406 6.45909 4.4099 6.12441 3.99192 6.12057C3.26715 6.12057 2.81465 6.97842 2.7648 7.07844V7.10921V7.14383C2.65359 7.65931 2.61141 7.67085 2.38133 7.71702C2.08481 7.76638 1.80079 7.87354 1.54535 8.03246C0.475459 8.69027 0.27222 9.90203 0.27222 10.7253C0.270038 10.9959 0.291853 11.2663 0.33741 11.5331C0.198315 12.3042 0.102297 13.0825 0.0498047 13.8643V14.0682L0.893447 14.4029C2.24328 14.9491 2.50787 15.0145 3.86154 14.0643C4.17076 13.8385 4.53186 13.6947 4.91131 13.6462C5.29076 13.5978 5.67625 13.6464 6.032 13.7874C5.31335 14.3432 4.63305 14.9473 3.99575 15.5954C3.76723 15.8099 3.58475 16.069 3.45947 16.3567C3.3342 16.6444 3.26875 16.9548 3.26715 17.2688C3.27623 17.856 3.47242 18.4248 3.82702 18.8921L3.86537 18.9421L3.92289 18.9729C4.84323 19.4115 5.45679 19.4846 5.81725 19.196C5.92902 19.0926 6.01083 18.9607 6.05403 18.8145C6.09724 18.6682 6.10022 18.513 6.06268 18.3651V18.3343V18.2997C6.04585 18.2705 6.03699 18.2373 6.03699 18.2035C6.03699 18.1698 6.04585 18.1366 6.06268 18.1074C6.28509 17.5996 7.74996 17.061 8.61661 16.8418L8.4824 16.3032C8.22547 16.3686 5.96298 16.9687 5.55649 17.8804C5.50857 17.9875 5.48573 18.1043 5.48972 18.2216C5.49371 18.339 5.52442 18.4539 5.5795 18.5575L5.55265 18.4882C5.55265 18.5305 5.5795 18.6998 5.49897 18.7652C5.41844 18.8306 5.19219 18.9383 4.24885 18.4998C3.99846 18.1373 3.85856 17.7096 3.8462 17.2688C3.84834 17.028 3.89944 16.7902 3.99637 16.57C4.0933 16.3497 4.23401 16.1516 4.4099 15.9878C5.12971 15.2507 5.90959 14.5751 6.74143 13.9682L7.08272 13.7373L6.74143 13.5065C6.26093 13.2099 5.70408 13.0616 5.14019 13.0801C4.5763 13.0985 4.03028 13.283 3.57009 13.6104C2.41967 14.4144 2.35065 14.3798 1.12737 13.8912L0.659527 13.7027C0.702111 13.0067 0.789214 12.3141 0.920293 11.6293L0.9433 11.5562V11.4831C0.897152 11.2384 0.875315 10.9897 0.87811 10.7406C0.87811 10.0367 1.043 9.0211 1.88664 8.50177C2.08654 8.37639 2.30955 8.29266 2.54239 8.25557C2.96804 8.17094 3.19046 8.044 3.35919 7.30155C3.45506 7.12075 3.74266 6.66682 4.07628 6.67067C4.33321 6.67067 4.62849 6.98611 4.90459 7.55544L5.02346 7.7978L5.26505 7.69008C6.00899 7.35541 8.07591 6.48987 8.71632 6.48987C9.50966 6.60083 10.2896 6.79289 11.044 7.06304C11.5924 7.22846 12.064 7.37465 12.3248 7.41696C13.5151 7.57002 14.72 7.57002 15.9103 7.41696H15.9486C16.5717 7.27249 17.2173 7.25525 17.8471 7.36628C18.4769 7.47731 19.078 7.71433 19.6147 8.06323C21.5052 9.35962 22.1533 10.8907 21.9155 13.5258C21.7161 15.9108 21.7506 16.0647 22.0804 16.5686L22.1533 16.6802C22.3335 16.9649 22.4984 18.3151 22.2683 19.273C22.2348 19.5384 22.1052 19.7821 21.904 19.9577C21.137 20.404 19.2427 20.3655 18.5716 20C18.5584 19.9935 18.5466 19.9844 18.5371 19.9731C18.5347 19.9669 18.5347 19.9601 18.5371 19.9539C18.5371 19.7577 19.1506 19.1037 19.8141 18.8383C20.0902 18.7267 20.2397 18.569 20.2551 18.3651C20.2567 18.3524 20.2567 18.3394 20.2551 18.3266C20.2551 17.942 19.7259 17.6073 18.7212 16.9956L18.6905 16.9764C18.0422 16.5694 17.5096 16.0015 17.1442 15.3276C16.7787 14.6537 16.5928 13.8966 16.6044 13.1295C16.604 12.8446 16.6284 12.5601 16.6772 12.2794L16.1365 12.1832C16.08 12.4955 16.0517 12.8122 16.0522 13.1295C16.0414 13.9924 16.2524 14.8436 16.6648 15.6009C17.0772 16.3582 17.6771 16.9962 18.4067 17.4534H18.4374C18.8743 17.6925 19.2889 17.9706 19.676 18.2843L19.6185 18.3113C19.0701 18.5305 18.0347 19.273 17.9964 19.9154V19.95C17.9967 20.059 18.0274 20.1658 18.085 20.2582C18.1426 20.3507 18.2248 20.4251 18.3223 20.4732C19.1468 20.9194 21.2559 20.9733 22.1954 20.4193C22.3632 20.2978 22.5047 20.1435 22.6115 19.9656C22.7183 19.7878 22.7881 19.5901 22.8167 19.3845C23.0698 18.3382 22.9202 16.8264 22.6288 16.3686L22.5521 16.2493C22.3258 15.9031 22.2836 15.8416 22.4792 13.5565C22.717 10.7253 21.9769 8.99802 19.9214 7.58622C19.3255 7.18862 18.6541 6.91881 17.9494 6.7937C17.2446 6.66858 16.5217 6.69087 15.8259 6.85916C14.6905 7.00644 13.5408 7.00644 12.4053 6.85916C11.9984 6.76718 11.5965 6.65419 11.2012 6.52064C10.396 6.23153 9.56134 6.03284 8.71248 5.92822C7.87268 5.94361 5.88244 6.77838 5.17685 7.08613Z" fill="#1D1D1B"/>
<path d="M2.35073 6.63974C1.78319 6.97827 1.75635 7.95152 1.75635 8.06308H2.30472C2.30472 7.81304 2.39675 7.25139 2.6345 7.10521C2.70955 7.07846 2.78997 7.07044 2.86881 7.08184C2.94764 7.09323 3.02253 7.1237 3.087 7.17061L3.3401 6.67821C3.19397 6.58288 3.02487 6.52898 2.8507 6.52221C2.67652 6.51544 2.50377 6.55605 2.35073 6.63974V6.63974Z" fill="#1D1D1B"/>
<path d="M2.10546 10.706L2.26269 11.8601L3.34791 10.5714L2.07861 10.4829L2.10546 10.706ZM2.45825 10.8599H2.673L2.48893 11.0792L2.45825 10.8599Z" fill="#1D1D1B"/>
<path d="M1.61035 14.3029L2.08586 14.6029C2.14722 14.5144 2.71859 13.8335 3.23628 13.2104L2.81446 12.8564C2.46933 13.245 1.70239 14.1836 1.61035 14.3029Z" fill="#1D1D1B"/>
<path d="M13.7515 16.0993C14.2232 16.8687 14.4801 17.665 14.3804 17.7958C14.2045 17.9662 14.0118 18.1183 13.8052 18.2497C13.3029 18.6036 12.7852 18.9691 12.72 19.4384C12.7033 19.5578 12.7125 19.6794 12.7469 19.7949C12.7813 19.9104 12.8402 20.0171 12.9194 20.1077C13.23 20.4732 13.8551 20.6848 14.6796 20.704C15.2931 20.704 17.153 20.7617 17.617 18.9729C17.7403 18.3525 17.9826 17.762 18.3302 17.2341L17.9122 16.8764C17.5034 17.4641 17.2212 18.131 17.0839 18.8344C16.8385 19.7769 16.1022 20.1808 14.6911 20.15C13.9241 20.1308 13.4946 19.9308 13.3412 19.7654C13.3122 19.7342 13.2902 19.6971 13.277 19.6565C13.2637 19.616 13.2595 19.5731 13.2645 19.5307C13.299 19.2999 13.7746 18.9652 14.1197 18.719C14.3632 18.5628 14.5895 18.381 14.7946 18.1766C15.2509 17.6573 14.5492 16.3609 14.2232 15.8262L13.7515 16.0993Z" fill="#1D1D1B"/>
<path d="M6.36182 13.9757C6.8735 14.286 7.34824 14.6539 7.77684 15.0721L8.24084 14.772C7.99925 14.3873 6.88334 13.6526 6.66093 13.5103L6.36182 13.9757Z" fill="#1D1D1B"/>
<path d="M26.1797 -0.015625H29.9454V7.32803H29.9991C30.5398 6.03163 31.6672 4.88143 34.1176 4.99299C35.4904 5.07762 37.8872 5.50077 39.1258 8.45516C40.6328 12.1135 40.1727 14.8948 38.9609 17.6261C37.8335 20.1573 36.3264 21.2537 33.6881 21.1421C32.9444 21.1074 32.2203 20.8922 31.5777 20.5149C30.9352 20.1377 30.3935 19.6097 29.9991 18.9763H29.9454V20.492H26.1797V-0.015625ZM30.5935 10.1401C30.1663 11.0756 29.9452 12.0924 29.9452 13.1214C29.9452 14.1504 30.1663 15.1672 30.5935 16.1027C31.2377 17.3683 32.2347 17.8184 33.1206 17.8184C34.0064 17.8184 34.9804 17.3683 35.6247 16.1027C36.0518 15.1672 36.2729 14.1504 36.2729 13.1214C36.2729 12.0924 36.0518 11.0756 35.6247 10.1401C34.9804 8.87446 33.9834 8.42438 33.1206 8.42438C32.2578 8.42438 31.23 8.88985 30.5935 10.1555V10.1401Z" fill="#1D1D1B"/>
<path d="M45.4494 14.1218C45.2939 14.9659 45.4566 15.8378 45.9058 16.5684C46.2394 17.0875 46.721 17.4939 47.288 17.7347C47.8549 17.9755 48.481 18.0396 49.0848 17.9187C50.1585 17.6917 51.075 16.9916 51.2629 16.203H54.9788C54.3307 19.1574 50.8871 21.1539 48.3293 21.1539C46.9798 21.142 45.6621 20.7414 44.5329 19.9998C43.2766 19.1245 42.3565 17.8445 41.9253 16.3722C41.7948 15.7594 41.7038 15.1388 41.653 14.5142C41.5823 13.4251 41.6273 12.3316 41.7873 11.2521C42.7306 5.28944 46.6881 5.00862 48.3562 5.00862C49.4636 4.97019 50.5612 5.22869 51.5359 5.75746C52.5105 6.28623 53.327 7.06616 53.9012 8.01687C55.2203 10.2404 55.2204 12.2946 55.1398 14.1218H45.4494ZM51.2361 11.479C51.2361 10.325 50.8526 8.40155 48.5978 8.29769C46.3429 8.19382 45.4226 10.0442 45.4494 11.479H51.2361Z" fill="#1D1D1B"/>
<path d="M56.6198 5.26269H60.374V8.21322H60.4277C60.6731 7.31306 60.861 6.78219 62.1801 5.82432C62.541 5.49995 62.9684 5.25884 63.4321 5.11795C63.8959 4.97705 64.3848 4.93979 64.8644 5.00879V9.02876C63.2462 8.83257 60.8265 8.60945 60.3663 11.9254V20.5039H56.6006L56.6198 5.26269Z" fill="#1D1D1B"/>
<path d="M66.5786 5.26274H70.3443V7.57085H70.398C71.1266 5.96671 72.5263 5.0127 73.9797 5.0127C77.3159 5.0127 79.5784 6.4745 79.5784 10.2983V20.5078H75.8088V11.4485C75.8088 10.0982 75.6478 8.4941 73.09 8.4941C70.7892 8.4941 70.3443 9.81742 70.3443 11.0561V20.504H66.5786V5.26274Z" fill="#1D1D1B"/>
<path d="M95.0286 20.5881H91.2591V18.9879H91.2054C90.811 19.6213 90.2693 20.1493 89.6268 20.5265C88.9842 20.9037 88.26 21.1189 87.5164 21.1536C84.878 21.2652 83.371 20.1688 82.2436 17.6376C81.6266 16.3045 81.2525 14.8714 81.1392 13.4061C81.0759 11.7145 81.3972 10.0306 82.0787 8.48208C83.3173 5.53154 85.714 5.10839 87.0869 5.01991C89.5373 4.90835 90.6647 6.05857 91.2054 7.35496H91.2591V-0.015625H95.0286V20.5881ZM85.5798 10.1285C85.1527 11.064 84.9315 12.0809 84.9315 13.1099C84.9315 14.1388 85.1527 15.1557 85.5798 16.0912C86.224 17.3568 87.2211 17.8069 88.1107 17.8069C89.0004 17.8069 89.9668 17.3568 90.611 16.0912C91.0381 15.1557 91.2593 14.1388 91.2593 13.1099C91.2593 12.0809 91.0381 11.064 90.611 10.1285C89.9668 8.86292 88.9697 8.41284 88.1107 8.41284C87.2518 8.41284 86.224 8.86292 85.5798 10.1285Z" fill="#1D1D1B"/>
<path d="M98.8212 19.296C97.3679 17.9188 96.6699 15.5569 96.6699 13.0795C96.6699 10.6021 97.3679 8.24398 98.8212 6.86296C100.227 5.66593 102.011 5.00879 103.854 5.00879C105.698 5.00879 107.482 5.66593 108.887 6.86296C110.341 8.24398 111.043 10.6059 111.043 13.0795C111.043 15.553 110.341 17.9188 108.887 19.296C107.483 20.4952 105.699 21.1538 103.854 21.1538C102.01 21.1538 100.226 20.4952 98.8212 19.296V19.296ZM101.164 10.0982C100.703 11.0238 100.463 12.0446 100.463 13.0795C100.463 14.1144 100.703 15.1351 101.164 16.0608C101.405 16.5701 101.786 17.0003 102.261 17.3015C102.736 17.6027 103.286 17.7626 103.849 17.7626C104.411 17.7626 104.961 17.6027 105.436 17.3015C105.911 17.0003 106.292 16.5701 106.533 16.0608C106.992 15.1344 107.231 14.114 107.231 13.0795C107.231 12.045 106.992 11.0245 106.533 10.0982C106.292 9.58889 105.911 9.15868 105.436 8.85745C104.961 8.55622 104.411 8.39633 103.849 8.39633C103.286 8.39633 102.736 8.55622 102.261 8.85745C101.786 9.15868 101.405 9.58889 101.164 10.0982V10.0982Z" fill="#1D1D1B"/>
<path d="M112.684 5.26269H116.45V8.21322H116.503C116.749 7.31306 116.937 6.78219 118.256 5.82432C118.617 5.49995 119.044 5.25884 119.508 5.11795C119.972 4.97705 120.46 4.93979 120.94 5.00879V9.02876C119.322 8.83257 116.902 8.60945 116.442 11.9254V20.5039H112.676L112.684 5.26269Z" fill="#1D1D1B"/>
<path d="M121.833 5.57025H123.881V3.79685C123.881 1.51951 124.982 0 127.432 0H129.783V2.92746H128.464C127.95 2.92746 127.655 3.26599 127.655 3.96612V5.57025H129.89V8.18612H127.655V20.4961H123.889V8.18612H121.841L121.833 5.57025Z" fill="#1D1D1B"/>
<path d="M113.815 33.7832C113.822 34.4757 113.74 35.1662 113.57 35.8374C113.432 36.3966 113.192 36.925 112.86 37.3954C112.561 37.8124 112.167 38.1514 111.71 38.384C111.211 38.6191 110.666 38.7362 110.115 38.7264C109.885 38.7284 109.656 38.7052 109.432 38.6572C109.223 38.6069 109.021 38.532 108.83 38.434C108.624 38.3265 108.43 38.1975 108.251 38.0494C108.044 37.8891 107.847 37.7169 107.66 37.5339V41.5577C107.66 41.6201 107.64 41.6807 107.603 41.7308C107.551 41.7902 107.483 41.8341 107.407 41.8577C107.283 41.8997 107.154 41.9268 107.024 41.9385C106.641 41.9785 106.256 41.9785 105.873 41.9385C105.743 41.9268 105.614 41.8997 105.49 41.8577C105.415 41.8341 105.347 41.7902 105.294 41.7308C105.257 41.6807 105.237 41.6201 105.237 41.5577V29.6324C105.235 29.5721 105.253 29.5129 105.287 29.4632C105.33 29.4093 105.387 29.3681 105.452 29.3439C105.555 29.3078 105.661 29.2846 105.77 29.2747C106.094 29.2388 106.42 29.2388 106.744 29.2747C106.851 29.2854 106.957 29.3086 107.058 29.3439C107.123 29.3681 107.18 29.4093 107.223 29.4632C107.257 29.5129 107.275 29.5721 107.273 29.6324V30.6364C107.503 30.3985 107.747 30.1738 108.002 29.9632C108.229 29.7763 108.474 29.6127 108.734 29.4747C108.977 29.3459 109.234 29.2477 109.501 29.1823C109.779 29.1162 110.063 29.0839 110.349 29.0862C110.903 29.0744 111.452 29.207 111.94 29.4709C112.377 29.7134 112.747 30.0611 113.018 30.4826C113.305 30.9406 113.51 31.4458 113.624 31.9752C113.753 32.569 113.817 33.1753 113.815 33.7832V33.7832ZM111.311 33.9563C111.312 33.6046 111.285 33.2535 111.231 32.9061C111.184 32.5962 111.091 32.2953 110.955 32.0136C110.835 31.7647 110.657 31.5483 110.437 31.3827C110.203 31.2208 109.923 31.1386 109.639 31.1481C109.479 31.1498 109.32 31.1744 109.168 31.2212C108.999 31.2765 108.839 31.3555 108.692 31.4558C108.511 31.5792 108.342 31.721 108.19 31.879C107.993 32.0798 107.811 32.2945 107.645 32.5214V35.3373C107.924 35.7052 108.248 36.0372 108.608 36.326C108.878 36.5468 109.214 36.6701 109.563 36.676C109.847 36.6861 110.127 36.6023 110.36 36.4375C110.586 36.2726 110.771 36.0581 110.901 35.8105C111.047 35.5352 111.152 35.2396 111.211 34.9334C111.277 34.6118 111.31 34.2845 111.311 33.9563V33.9563Z" fill="#1D1D1B"/>
<path d="M122.182 30.4323C122.182 30.6592 122.182 30.8477 122.163 30.9978C122.157 31.1137 122.138 31.2286 122.106 31.3401C122.091 31.4068 122.056 31.4672 122.006 31.5132C121.96 31.5463 121.905 31.5638 121.849 31.5633C121.79 31.5618 121.731 31.5501 121.676 31.5286L121.462 31.4555L121.197 31.3825C121.093 31.3616 120.988 31.3512 120.882 31.3517C120.751 31.3544 120.621 31.3818 120.499 31.4325C120.348 31.4966 120.208 31.5821 120.081 31.6864C119.917 31.8244 119.767 31.9777 119.632 32.1441C119.453 32.3719 119.287 32.6095 119.134 32.8558V38.1799C119.135 38.2413 119.114 38.3011 119.076 38.3491C119.023 38.406 118.956 38.4473 118.881 38.4684C118.756 38.5072 118.627 38.5318 118.497 38.5415C118.344 38.5415 118.148 38.5645 117.914 38.5645C117.68 38.5645 117.485 38.5645 117.332 38.5415C117.201 38.5318 117.073 38.5072 116.948 38.4684C116.873 38.4473 116.806 38.406 116.752 38.3491C116.714 38.3011 116.694 38.2413 116.695 38.1799V29.636C116.693 29.5757 116.711 29.5164 116.745 29.4667C116.789 29.4123 116.847 29.371 116.914 29.3475C117.018 29.3123 117.126 29.289 117.236 29.2782C117.398 29.2577 117.562 29.2487 117.726 29.2513C117.896 29.2487 118.065 29.2577 118.233 29.2782C118.339 29.2871 118.443 29.3104 118.543 29.3475C118.605 29.3728 118.659 29.4139 118.701 29.4667C118.732 29.5176 118.748 29.5763 118.747 29.636V30.6977C118.939 30.4263 119.15 30.1692 119.379 29.9283C119.548 29.7433 119.737 29.5781 119.943 29.4359C120.104 29.3205 120.285 29.2345 120.476 29.182C120.651 29.1333 120.831 29.1087 121.013 29.109C121.101 29.1037 121.189 29.1037 121.277 29.109C121.378 29.1174 121.478 29.1328 121.577 29.1551C121.666 29.1759 121.754 29.2016 121.841 29.2321C121.902 29.2536 121.959 29.2847 122.01 29.3244C122.043 29.3526 122.069 29.3881 122.087 29.4283C122.106 29.4793 122.12 29.5321 122.129 29.586C122.145 29.6866 122.154 29.7881 122.156 29.8899C122.179 30.0207 122.182 30.2015 122.182 30.4323Z" fill="#1D1D1B"/>
<path d="M133.016 33.8369C133.023 34.512 132.926 35.1843 132.728 35.8295C132.55 36.3979 132.255 36.9223 131.861 37.3683C131.458 37.8114 130.958 38.1551 130.4 38.3723C129.744 38.6199 129.046 38.74 128.345 38.7262C127.673 38.7407 127.004 38.6339 126.37 38.4108C125.838 38.2201 125.36 37.9049 124.974 37.4914C124.592 37.0654 124.311 36.5576 124.154 36.0065C123.965 35.353 123.874 34.6749 123.885 33.9946C123.879 33.318 123.977 32.6444 124.177 31.9981C124.357 31.429 124.655 30.9046 125.051 30.4593C125.454 30.019 125.953 29.6769 126.508 29.4591C127.162 29.2111 127.857 29.091 128.556 29.1052C129.231 29.0913 129.903 29.1968 130.542 29.4168C131.072 29.6041 131.549 29.9184 131.93 30.3324C132.312 30.758 132.592 31.2661 132.747 31.8173C132.936 32.4734 133.027 33.154 133.016 33.8369V33.8369ZM130.542 33.933C130.544 33.5461 130.51 33.1598 130.443 32.779C130.386 32.4517 130.27 32.1375 130.101 31.8519C129.949 31.5948 129.73 31.3836 129.469 31.2402C129.16 31.084 128.817 31.0086 128.471 31.021C128.148 31.0139 127.826 31.081 127.532 31.2171C127.268 31.3482 127.042 31.5457 126.876 31.7903C126.694 32.0683 126.564 32.3772 126.493 32.702C126.4 33.0991 126.356 33.5061 126.362 33.9138C126.359 34.3011 126.395 34.6878 126.47 35.0679C126.528 35.3941 126.642 35.7077 126.807 35.9949C126.96 36.2519 127.18 36.4621 127.444 36.6027C127.752 36.7554 128.093 36.8294 128.437 36.8182C128.762 36.8257 129.085 36.7586 129.38 36.622C129.646 36.4921 129.874 36.2945 130.04 36.0488C130.223 35.7744 130.354 35.4677 130.423 35.1448C130.512 34.7418 130.554 34.3302 130.55 33.9176L130.542 33.933Z" fill="#1D1D1B"/>
<path d="M138.48 38.4533C138.494 39.0009 138.436 39.548 138.308 40.0805C138.211 40.4633 138.034 40.8211 137.79 41.1307C137.556 41.4141 137.256 41.6348 136.916 41.7731C136.523 41.924 136.105 41.9971 135.685 41.9885C135.46 41.991 135.235 41.973 135.014 41.9347C134.882 41.9131 134.754 41.877 134.63 41.827C134.558 41.7985 134.498 41.7472 134.458 41.6808C134.426 41.619 134.402 41.5529 134.389 41.4846C134.389 41.4115 134.369 41.3269 134.362 41.2346C134.354 41.1422 134.362 41.023 134.362 40.8768C134.362 40.7306 134.362 40.5498 134.362 40.4306C134.368 40.3351 134.386 40.2407 134.415 40.1497C134.433 40.0931 134.461 40.0407 134.5 39.9959C134.534 39.9633 134.579 39.9453 134.626 39.9459C134.657 39.9459 134.722 39.9459 134.822 39.9728C134.927 39.9887 135.034 39.9964 135.14 39.9959C135.287 39.9988 135.433 39.9727 135.57 39.9189C135.692 39.8707 135.795 39.7844 135.865 39.6727C135.95 39.5417 136.009 39.3954 136.038 39.2419C136.084 38.9662 136.103 38.6866 136.095 38.4071V29.6555C136.094 29.5941 136.115 29.5343 136.153 29.4862C136.206 29.4301 136.271 29.3879 136.344 29.3631C136.462 29.3219 136.584 29.2948 136.709 29.2824C137.091 29.2421 137.477 29.2421 137.859 29.2824C137.99 29.2941 138.118 29.3212 138.243 29.3631C138.317 29.387 138.384 29.4293 138.438 29.4862C138.476 29.5343 138.497 29.5941 138.496 29.6555L138.48 38.4533ZM138.664 26.728C138.703 27.0882 138.598 27.449 138.373 27.7321C138.051 27.9572 137.658 28.057 137.269 28.0129C136.885 28.0539 136.5 27.9586 136.179 27.7436C136.069 27.6096 135.987 27.4547 135.938 27.2882C135.888 27.1217 135.873 26.9469 135.892 26.7742C135.872 26.5947 135.889 26.413 135.94 26.2399C135.991 26.0669 136.077 25.9058 136.191 25.7663C136.527 25.5838 136.903 25.4883 137.286 25.4883C137.668 25.4883 138.044 25.5838 138.381 25.7663C138.6 26.0415 138.703 26.3929 138.664 26.7434V26.728Z" fill="#1D1D1B"/>
<path d="M149.724 33.6598C149.743 33.8935 149.673 34.1258 149.528 34.3099C149.458 34.382 149.374 34.4382 149.281 34.4747C149.187 34.5112 149.087 34.5272 148.987 34.5215H143.814C143.81 34.8566 143.853 35.1906 143.941 35.514C144.018 35.7989 144.16 36.0622 144.355 36.2833C144.555 36.4972 144.804 36.6596 145.08 36.7565C145.423 36.872 145.784 36.9267 146.146 36.9181C146.516 36.9222 146.886 36.8913 147.25 36.8257C147.53 36.7761 147.807 36.7093 148.079 36.6257C148.309 36.5526 148.504 36.4872 148.654 36.4257C148.775 36.3714 148.905 36.3401 149.037 36.3333C149.087 36.3319 149.136 36.3439 149.179 36.368C149.222 36.397 149.256 36.4386 149.275 36.4872C149.304 36.5665 149.322 36.6493 149.329 36.7334C149.329 36.8373 149.329 36.9681 149.329 37.1181C149.329 37.2681 149.329 37.3797 149.329 37.4759C149.324 37.5611 149.314 37.6459 149.298 37.7297C149.29 37.7918 149.27 37.8518 149.241 37.9067C149.216 37.9584 149.182 38.0053 149.141 38.0452C149.04 38.1258 148.926 38.1883 148.803 38.2298C148.574 38.3204 148.338 38.395 148.098 38.453C147.773 38.5339 147.444 38.5981 147.112 38.6453C146.72 38.7009 146.324 38.7278 145.927 38.7261C145.253 38.7374 144.581 38.6413 143.937 38.4414C143.399 38.2689 142.91 37.9694 142.511 37.5682C142.111 37.1518 141.818 36.6451 141.655 36.091C141.455 35.4146 141.359 34.7115 141.372 34.006C141.362 33.3084 141.463 32.6138 141.671 31.9479C141.847 31.3807 142.14 30.8566 142.53 30.4092C142.906 29.9843 143.374 29.6514 143.899 29.4359C145.076 29.0025 146.368 29.0025 147.546 29.4359C148.024 29.6267 148.45 29.927 148.792 30.313C149.124 30.6982 149.368 31.151 149.509 31.6402C149.666 32.1812 149.744 32.7423 149.739 33.3059L149.724 33.6598ZM147.423 32.9712C147.474 32.4081 147.33 31.8445 147.016 31.3747C146.856 31.1761 146.65 31.0195 146.417 30.9183C146.183 30.8171 145.928 30.7744 145.674 30.7939C145.4 30.7871 145.127 30.8465 144.88 30.967C144.66 31.0772 144.467 31.2363 144.317 31.4324C144.161 31.6392 144.044 31.8725 143.972 32.121C143.889 32.3973 143.843 32.683 143.834 32.9712H147.423Z" fill="#1D1D1B"/>
<path d="M160.607 38.1914C160.607 38.2509 160.588 38.309 160.553 38.3568C160.504 38.4158 160.436 38.4564 160.361 38.4722C160.236 38.5092 160.108 38.5324 159.978 38.5414C159.817 38.5568 159.61 38.5645 159.356 38.5645C159.096 38.5645 158.885 38.5645 158.72 38.5453C158.591 38.5359 158.462 38.5153 158.336 38.4837C158.247 38.4622 158.163 38.4216 158.091 38.3645C158.029 38.3056 157.977 38.2367 157.938 38.1606L155.092 33.6598V38.1798C155.093 38.2412 155.073 38.3011 155.035 38.3491C154.982 38.406 154.914 38.4473 154.839 38.4684C154.715 38.5072 154.586 38.5317 154.456 38.5414C154.302 38.5414 154.107 38.5645 153.873 38.5645C153.639 38.5645 153.443 38.5645 153.29 38.5414C153.16 38.5317 153.031 38.5072 152.906 38.4684C152.832 38.4473 152.764 38.406 152.711 38.3491C152.673 38.3011 152.652 38.2412 152.653 38.1798V25.5852C152.652 25.5227 152.673 25.4616 152.711 25.4121C152.763 25.3514 152.831 25.3062 152.906 25.2813C153.031 25.2394 153.159 25.2123 153.29 25.2005C153.673 25.1656 154.058 25.1656 154.44 25.2005C154.571 25.2123 154.7 25.2394 154.824 25.2813C154.9 25.3062 154.967 25.3514 155.019 25.4121C155.057 25.4616 155.078 25.5227 155.077 25.5852V33.0674L157.596 29.6667C157.645 29.5932 157.703 29.526 157.769 29.4667C157.843 29.4053 157.929 29.3595 158.022 29.3321C158.147 29.2973 158.276 29.2741 158.405 29.2628C158.604 29.2422 158.804 29.2332 159.004 29.2359C159.202 29.2335 159.401 29.2425 159.598 29.2628C159.728 29.2728 159.856 29.296 159.982 29.3321C160.06 29.3532 160.131 29.3943 160.189 29.4513C160.227 29.502 160.248 29.5644 160.246 29.6283C160.245 29.735 160.22 29.84 160.173 29.936C160.117 30.0601 160.044 30.1764 159.959 30.2822L157.466 33.1174L160.35 37.5913C160.416 37.6963 160.472 37.807 160.518 37.9221C160.565 38.0053 160.595 38.0967 160.607 38.1914Z" fill="#1D1D1B"/>
<path d="M168 37.3374C168.007 37.5542 167.989 37.7711 167.946 37.9837C167.928 38.0991 167.881 38.2078 167.808 38.2991C167.736 38.3706 167.65 38.4268 167.555 38.4646C167.431 38.5159 167.303 38.5571 167.172 38.5877C167.011 38.6242 166.848 38.6512 166.685 38.6684C166.509 38.6883 166.332 38.6986 166.155 38.6992C165.734 38.7081 165.314 38.6457 164.913 38.5146C164.581 38.406 164.283 38.214 164.046 37.9568C163.805 37.6834 163.631 37.3565 163.54 37.0028C163.422 36.5588 163.366 36.1004 163.375 35.641V31.2632H162.355C162.292 31.2604 162.23 31.2373 162.181 31.1971C162.131 31.157 162.095 31.102 162.079 31.0401C161.999 30.792 161.967 30.531 161.983 30.2708C161.982 30.114 161.99 29.9573 162.006 29.8014C162.015 29.6983 162.04 29.597 162.079 29.5014C162.101 29.4376 162.143 29.3825 162.198 29.3437C162.246 29.3095 162.304 29.292 162.363 29.2937H163.375V27.3702C163.375 27.3083 163.393 27.2478 163.429 27.1971C163.478 27.1347 163.545 27.089 163.621 27.0663C163.745 27.0258 163.874 27 164.004 26.9894C164.161 26.9894 164.353 26.9663 164.583 26.9663C164.813 26.9663 165.013 26.9663 165.17 26.9894C165.3 27.0001 165.429 27.0259 165.553 27.0663C165.627 27.0921 165.692 27.1373 165.741 27.1971C165.779 27.2466 165.8 27.3077 165.799 27.3702V29.2937H167.655C167.714 29.292 167.772 29.3095 167.82 29.3437C167.875 29.3825 167.916 29.4376 167.939 29.5014C167.978 29.597 168.003 29.6983 168.012 29.8014C168.028 29.9573 168.036 30.114 168.035 30.2708C168.051 30.531 168.019 30.792 167.939 31.0401C167.922 31.102 167.887 31.157 167.837 31.1971C167.787 31.2373 167.726 31.2604 167.663 31.2632H165.799V35.2794C165.774 35.6421 165.851 36.0045 166.021 36.3257C166.108 36.4461 166.224 36.5417 166.358 36.6031C166.493 36.6645 166.641 36.6896 166.788 36.6758C166.903 36.6763 167.017 36.666 167.13 36.645C167.222 36.6247 167.313 36.599 167.402 36.5681L167.605 36.4911C167.651 36.4701 167.7 36.4583 167.751 36.4565C167.79 36.4567 167.829 36.4687 167.862 36.4911C167.904 36.5247 167.933 36.5726 167.942 36.6258C167.967 36.7154 167.985 36.8066 167.996 36.8989C168.007 37.0448 168.008 37.1913 168 37.3374V37.3374Z" fill="#1D1D1B"/>
</g>
<defs>
<clipPath id="clip0_101_5860">
<rect width="168" height="42" fill="white"/>
</clipPath>
</defs>
</svg>
