<svg id="Layer_2" data-name="Layer 2" xmlns="http://www.w3.org/2000/svg" viewBox="0 0 338.69 100.93"><defs><style>.cls-1{fill:#fff;}</style></defs><path class="cls-1" d="M67.9,68.72h6V79.9H74c.86-2,2.66-3.73,6.55-3.56a8.6,8.6,0,0,1,8,5.27,15.7,15.7,0,0,1-.26,14c-1.8,3.85-4.2,5.52-8.39,5.35A7.41,7.41,0,0,1,74,97.62H73.9v2.31h-6Zm7,15.46a10.52,10.52,0,0,0,0,9.08,4.37,4.37,0,0,0,8,0,10.52,10.52,0,0,0,0-9.08,4.37,4.37,0,0,0-8,0Z"/><path class="cls-1" d="M107.64,99.93a3.74,3.74,0,0,1-.65-2.31c-2.1,2-3.94,3.3-7.45,3.3-4.71,0-7-2.66-6.85-7.15.13-3.25,1.42-6.42,6.72-7.32a24.15,24.15,0,0,0,6-1.07,2.47,2.47,0,0,0,1.5-2.61c0-1.46-1.2-2.1-3.94-2.1-3.42,0-3.85,2.1-3.94,3.77H93.42c.09-7.41,6.42-8.1,9.59-8.1a15.71,15.71,0,0,1,5.48.86c2.31.94,4.15,2.83,4.15,6.51V96.38A3.67,3.67,0,0,0,114,99.12v.81ZM97.1,68.64h4.71v5.22H97.1ZM107,89c-1.71,1-4,.94-5.57,1.24A3,3,0,0,0,98.77,94c.35,1.37,1.42,2.35,4,1.92,3.56-.55,4.2-3,4.2-5.61Zm2.83-20.38v5.22h-4.71V68.64Z"/><path class="cls-1" d="M138.68,100.06h-6V97.62h-.08a7.41,7.41,0,0,1-5.87,3.3c-4.2.17-6.59-1.5-8.39-5.35a18.29,18.29,0,0,1-1.76-6.47,16.42,16.42,0,0,1,1.5-7.49,8.6,8.6,0,0,1,8-5.27c3.89-.17,5.69,1.59,6.55,3.56h.08V68.72h6Zm-15-15.92a10.5,10.5,0,0,0,0,9.07,4.37,4.37,0,0,0,8,0,10.5,10.5,0,0,0,0-9.07,4.36,4.36,0,0,0-8,0Z"/><path class="cls-1" d="M148.52,90.22a5.07,5.07,0,0,0,.73,3.72A5,5,0,0,0,154.3,96c1.71-.35,3.17-1.42,3.47-2.62h5.91c-1,4.5-6.51,7.54-10.58,7.54a11.44,11.44,0,0,1-6-1.76,10.29,10.29,0,0,1-4.16-5.52,22.43,22.43,0,0,1-.42-2.82,22.17,22.17,0,0,1,.21-5c1.5-9.08,7.79-9.51,10.45-9.51A10,10,0,0,1,162,80.93c2.09,3.38,2.09,6.5,2,9.29Zm9.21-4c0-1.75-.6-4.67-4.2-4.84a4.55,4.55,0,0,0-5,4.84Z"/><path class="cls-1" d="M168,76.73h6v4.5h.08c.39-1.38.69-2.19,2.79-3.64a5.41,5.41,0,0,1,4.28-1.25v6.13c-2.57-.3-6.43-.65-7.15,4.41V99.93h-6Z"/><path class="cls-1" d="M184.49,68.72h6V79.9h.09c.85-2,2.65-3.73,6.55-3.56a8.59,8.59,0,0,1,8,5.27,15.67,15.67,0,0,1-.26,14c-1.8,3.85-4.19,5.52-8.39,5.35a7.38,7.38,0,0,1-5.86-3.3h-.09v2.31h-6Zm7,15.46a10.52,10.52,0,0,0,0,9.08,4.37,4.37,0,0,0,8,0,10.52,10.52,0,0,0,0-9.08,4.37,4.37,0,0,0-8,0Z"/><path class="cls-1" d="M224.22,99.93a3.74,3.74,0,0,1-.65-2.31c-2.09,2-3.93,3.3-7.45,3.3-4.7,0-7-2.66-6.84-7.15.12-3.25,1.41-6.42,6.72-7.32a24.15,24.15,0,0,0,6-1.07,2.47,2.47,0,0,0,1.5-2.61c0-1.46-1.2-2.1-3.94-2.1-3.42,0-3.85,2.1-3.94,3.77H210c.09-7.41,6.42-8.1,9.59-8.1a15.71,15.71,0,0,1,5.48.86c2.31.94,4.16,2.83,4.16,6.51V96.38a3.63,3.63,0,0,0,1.32,2.74v.81ZM223.53,89c-1.71,1-4,.94-5.56,1.24A3,3,0,0,0,215.35,94c.35,1.37,1.42,2.35,4,1.92,3.55-.55,4.19-3,4.19-5.61Z"/><path class="cls-1" d="M255.34,99.93h-6V97.07h-.09a7,7,0,0,1-5.65,3.85c-3.3,0-8.69-.39-9-8V76.73h6V91.12c-.09,2-.09,4.66,4.32,4.49,3.64-.38,4.24-2.44,4.37-3.9v-15h6Z"/><path class="cls-1" d="M31.7,39.76l-.41,1.37c8.91,2.66,12.21-1.88,12.35-2.08l-1.17-.83C42.35,38.38,39.55,42.1,31.7,39.76Z"/><path class="cls-1" d="M18,32.75c1.52,2.86,3.9,12.44,4.5,14.88a9,9,0,0,0-4,3.16l-.08.12v.15a1.42,1.42,0,0,0,0,.29,2.2,2.2,0,0,0,.93,1.78C21.7,55,28,54.29,29.6,53.66,34,51.9,31.69,36.09,31.19,32.94l-1.42.23c1.18,7.36,1.75,18.17-.7,19.15-1.51.61-7.15,1-8.85-.33a.79.79,0,0,1-.37-.62,8.49,8.49,0,0,1,3.78-2.66l.58-.23-.15-.61c-.12-.5-2.94-12.37-4.76-15.79Z"/><path class="cls-1" d="M13.5,18.42c-.92-1.63-2-2.51-3.1-2.52-1.88,0-3.06,2.24-3.19,2.49l0,.08,0,.09c-.29,1.35-.4,1.37-1,1.5a5.92,5.92,0,0,0-2.18.82c-2.79,1.71-3.32,4.85-3.32,7A11.83,11.83,0,0,0,.79,30,54.66,54.66,0,0,0,0,36l0,.53,2.2.88c3.52,1.42,4.2,1.58,7.73-.89a6,6,0,0,1,5.66-.72,56.2,56.2,0,0,0-5.31,4.7,6,6,0,0,0-1.89,4.35,7.25,7.25,0,0,0,1.45,4.23l.11.13.15.07c2.39,1.14,4,1.33,4.94.58a2.19,2.19,0,0,0,.64-2.15l0-.09,0-.08a.54.54,0,0,1,0-.51c.59-1.31,4.4-2.71,6.67-3.29l-.35-1.39c-.67.17-6.57,1.73-7.63,4.09a2,2,0,0,0,.06,1.77l-.07-.18c0,.11.07.55-.14.72s-.8.44-3.26-.7a5.9,5.9,0,0,1-1.06-3.2,4.6,4.6,0,0,1,1.48-3.33,47.37,47.37,0,0,1,6.08-5.25l.89-.6-.9-.59a7.49,7.49,0,0,0-8.26.26c-3,2.1-3.18,2-6.37.73l-1.22-.48a40.76,40.76,0,0,1,.68-5.4l.06-.18,0-.19a11.65,11.65,0,0,1-.16-1.94c0-1.82.42-4.47,2.63-5.81a4.54,4.54,0,0,1,1.7-.64c1.12-.22,1.7-.56,2.13-2.48.25-.48,1.05-1.66,1.88-1.65.67,0,1.43.83,2.16,2.31l.3.62L13.5,20c1.94-.87,7.33-3.11,9-3.11a30.66,30.66,0,0,1,6.07,1.48,30.17,30.17,0,0,0,3.34.92,35.84,35.84,0,0,0,9.35,0h0l.05,0a12.48,12.48,0,0,1,9.56,1.68c4.93,3.37,6.62,7.36,6,14.21-.52,6.19-.43,6.6.43,7.91l.19.28c.47.74.9,4.25.3,6.74a2.84,2.84,0,0,1-1,1.78c-2,1.16-6.94,1.06-8.69.12a.27.27,0,0,1-.1-.07v0c0-.51,1.6-2.21,3.33-2.9.72-.29,1.11-.71,1.15-1.24v-.09c0-1.05-1.37-1.87-4-3.47l-.07,0a11.61,11.61,0,0,1-5.45-10,12.79,12.79,0,0,1,.2-2.21l-1.41-.26a13.8,13.8,0,0,0-.22,2.46,13,13,0,0,0,6.14,11.24l.08,0a21.48,21.48,0,0,1,3.23,2.15l-.16.07c-1.42.57-4.13,2.51-4.22,4.18v.09a1.49,1.49,0,0,0,.85,1.35c2.15,1.16,7.64,1.31,10.1-.14a4,4,0,0,0,1.62-2.68c.65-2.72.27-6.65-.49-7.85l-.2-.31c-.59-.89-.7-1-.2-7,.63-7.35-1.3-11.85-6.66-15.51A13.64,13.64,0,0,0,41,17.86a34.7,34.7,0,0,1-8.91,0c-.58-.09-1.82-.47-3.14-.87a29.7,29.7,0,0,0-6.49-1.55C20.53,15.44,15.34,17.62,13.5,18.42Z"/><path class="cls-1" d="M6.13,17.26c-1.48.88-1.55,3.41-1.56,3.69L6,21c0-.65.23-2.11.86-2.48.26-.16.66-.1,1.17.16l.67-1.27A2.52,2.52,0,0,0,6.13,17.26Z"/><path class="cls-1" d="M5.49,27.82l.41,3.05,2.83-3.35L5.41,27.3Zm.92.41.56,0-.48.57Z"/><path class="cls-1" d="M4.2,37.17l1.22.77c.15-.24,1.65-2,3-3.62l-1.1-.93C6.43,34.43,4.39,36.86,4.2,37.17Z"/><path class="cls-1" d="M35.86,41.85c1.23,2,1.9,4.06,1.63,4.41A10.18,10.18,0,0,1,36,47.44c-1.3.92-2.66,1.87-2.82,3.09a2.16,2.16,0,0,0,.52,1.74c.81.94,2.44,1.49,4.59,1.54,1.59,0,6.45.15,7.65-4.5a12.94,12.94,0,0,1,1.87-4.52l-1.1-.93A13.7,13.7,0,0,0,44.54,49c-.63,2.45-2.55,3.51-6.23,3.42-2,0-3.12-.56-3.52-1a.72.72,0,0,1-.2-.61c.08-.6,1.32-1.47,2.23-2.11a10.48,10.48,0,0,0,1.75-1.4c1.2-1.36-.64-4.73-1.48-6.11Z"/><path class="cls-1" d="M16.59,36.32a20.37,20.37,0,0,1,3.68,2.85l1.22-.77c-.64-1-3.54-2.91-4.12-3.29Z"/><path class="cls-1" d="M68.26,0h9.83V19.08h.14C79.63,15.72,82.58,12.72,89,13c3.58.22,9.82,1.32,13,9,3.93,9.5,2.74,16.74-.42,23.83-2.95,6.58-6.88,9.43-13.75,9.14a12,12,0,0,1-9.62-5.63h-.14V53.3H68.26ZM79.77,26.39a19.64,19.64,0,0,0-1.68,7.75,19.6,19.6,0,0,0,1.68,7.75c1.69,3.29,4.29,4.46,6.6,4.46s4.84-1.17,6.53-4.46a19.6,19.6,0,0,0,1.68-7.75,19.64,19.64,0,0,0-1.68-7.75c-1.69-3.29-4.28-4.46-6.53-4.46S81.46,23.1,79.77,26.39Z"/><path class="cls-1" d="M118.52,36.7c-.21,2.12-.21,4.32,1.19,6.36A8,8,0,0,0,128,46.57c2.81-.58,5.2-2.41,5.69-4.46h9.68C141.68,49.79,132.69,55,126,55a18.29,18.29,0,0,1-9.9-3,17.51,17.51,0,0,1-6.81-9.43,40.31,40.31,0,0,1-.7-4.82,40,40,0,0,1,.35-8.48C111.43,13.75,121.75,13,126.1,13a16.26,16.26,0,0,1,14.46,7.83C144,26.61,144,32,143.79,36.7Zm15.09-6.87c0-3-1-8-6.88-8.26-6-.29-8.28,4.53-8.21,8.26Z"/><path class="cls-1" d="M147.64,13.67h9.83v7.68h.14c.63-2.34,1.13-3.73,4.56-6.22a8.7,8.7,0,0,1,7-2.12V23.47C165,23,158.66,22.37,157.47,31V53.3h-9.83Z"/><path class="cls-1" d="M173.61,13.67h9.83v6h.14c1.9-4.17,5.55-6.66,9.34-6.66,8.7,0,14.59,3.81,14.59,13.75V53.3h-9.82V29.76c0-3.51-.42-7.68-7.09-7.68-6,0-7.16,3.44-7.16,6.65V53.3h-9.83Z"/><path class="cls-1" d="M247.8,53.52H238V49.35h-.14A12,12,0,0,1,228.22,55c-6.88.29-10.81-2.56-13.76-9.14a32.08,32.08,0,0,1-2.87-11A28.83,28.83,0,0,1,214,22c3.23-7.68,9.48-8.78,13.06-9,6.38-.29,9.33,2.71,10.74,6.07H238V0h9.82Zm-24.63-27.2a19.45,19.45,0,0,0-1.69,7.75,19.4,19.4,0,0,0,1.69,7.75c1.68,3.29,4.28,4.46,6.59,4.46s4.85-1.17,6.53-4.46A19.58,19.58,0,0,0,238,34.07a19.62,19.62,0,0,0-1.69-7.75c-1.68-3.29-4.28-4.46-6.53-4.46S224.85,23,223.17,26.32Z"/><path class="cls-1" d="M257.7,50.16c-3.79-3.59-5.62-9.73-5.62-16.16s1.83-12.58,5.62-16.16a20.25,20.25,0,0,1,26.25,0c3.79,3.58,5.61,9.72,5.61,16.16S287.74,46.57,284,50.16a20.28,20.28,0,0,1-26.25,0Zm6.1-23.91A18.18,18.18,0,0,0,262,34a18.22,18.22,0,0,0,1.82,7.75,7.75,7.75,0,0,0,14,0A18.2,18.2,0,0,0,279.67,34a18.16,18.16,0,0,0-1.83-7.75,7.75,7.75,0,0,0-14,0Z"/><path class="cls-1" d="M293.84,13.67h9.83v7.68h.14c.63-2.34,1.12-3.73,4.56-6.22a8.7,8.7,0,0,1,7-2.12V23.47c-4.21-.51-10.53-1.1-11.72,7.53V53.3h-9.83Z"/><path class="cls-1" d="M317.71,14.48H323V9.87C323,4,325.92,0,332.31,0h6.1V7.6H335c-1.33,0-2.1.88-2.1,2.71v4.17h5.82v6.8h-5.82v32H323v-32h-5.33Z"/></svg>