<svg width="14" height="14" viewBox="0 0 14 14" fill="none" xmlns="http://www.w3.org/2000/svg">
<path d="M13.0013 1.40376H10.1635V0.316998C10.1635 0.242283 10.1026 0.181152 10.0283 0.181152H9.08237C9.00805 0.181152 8.94724 0.242283 8.94724 0.316998V1.40376H4.62291V0.316998C4.62291 0.242283 4.5621 0.181152 4.48778 0.181152H3.54183C3.46751 0.181152 3.4067 0.242283 3.4067 0.316998V1.40376H0.568861C0.269874 1.40376 0.0283203 1.64659 0.0283203 1.94714V13.2223C0.0283203 13.5229 0.269874 13.7657 0.568861 13.7657H13.0013C13.3003 13.7657 13.5418 13.5229 13.5418 13.2223V1.94714C13.5418 1.64659 13.3003 1.40376 13.0013 1.40376ZM12.3256 12.5431H1.24454V6.09043H12.3256V12.5431ZM1.24454 4.93574V2.62637H3.4067V3.44144C3.4067 3.51616 3.46751 3.57729 3.54183 3.57729H4.48778C4.5621 3.57729 4.62291 3.51616 4.62291 3.44144V2.62637H8.94724V3.44144C8.94724 3.51616 9.00805 3.57729 9.08237 3.57729H10.0283C10.1026 3.57729 10.1635 3.51616 10.1635 3.44144V2.62637H12.3256V4.93574H1.24454Z" fill="black"/>
</svg>
