<svg width="14" height="8" viewBox="0 0 14 8" fill="none" xmlns="http://www.w3.org/2000/svg">
<path d="M12.6743 0.695331L7.2711 5.99004L1.86785 0.695331C1.77131 0.600541 1.64172 0.547473 1.50677 0.547473C1.37182 0.547473 1.24222 0.600541 1.14569 0.695331C1.09894 0.741371 1.06181 0.796324 1.03646 0.856972C1.0111 0.91762 0.998047 0.982744 0.998047 1.04853C0.998047 1.11431 1.0111 1.17944 1.03646 1.24009C1.06181 1.30073 1.09894 1.35569 1.14569 1.40173L6.8938 7.03551C6.99475 7.13442 7.13013 7.18978 7.2711 7.18978C7.41206 7.18978 7.54745 7.13442 7.6484 7.03551L13.3965 1.40281C13.4436 1.35674 13.481 1.30165 13.5065 1.2408C13.5321 1.17995 13.5453 1.11458 13.5453 1.04853C13.5453 0.982482 13.5321 0.917104 13.5065 0.856255C13.481 0.795406 13.4436 0.740318 13.3965 0.694244C13.3 0.599454 13.1704 0.546387 13.0354 0.546387C12.9005 0.546387 12.7709 0.599454 12.6743 0.694244V0.695331Z" fill="black"/>
</svg>
